<mxfile host="app.diagrams.net" modified="2024-02-25T04:54:27.658Z" agent="Mozilla/5.0 (Macintosh; Intel Mac OS X 10_15_7) AppleWebKit/537.36 (KHTML, like Gecko) Chrome/122.0.0.0 Safari/537.36" version="23.1.5" etag="ZrxjUPJhvcy5FvtrtqYY" type="github">
  <diagram name="第 1 页" id="D9RNKOp8RHyGznicyuE4">
    <mxGraphModel>
      <root>
        <mxCell id="0" />
        <mxCell id="1" parent="0" />
      </root>
    </mxGraphModel>
  </diagram>
</mxfile>
